<mxfile host="65bd71144e">
    <diagram id="jddEIth6pRFo4NDpLuqs" name="Page-1">
        <mxGraphModel dx="621" dy="686" grid="1" gridSize="10" guides="1" tooltips="1" connect="1" arrows="1" fold="1" page="1" pageScale="1" pageWidth="850" pageHeight="1100" math="0" shadow="0">
            <root>
                <mxCell id="0"/>
                <mxCell id="1" parent="0"/>
                <mxCell id="2" value="" style="whiteSpace=wrap;html=1;aspect=fixed;" vertex="1" parent="1">
                    <mxGeometry x="110" width="670" height="670" as="geometry"/>
                </mxCell>
                <mxCell id="3" value="Navbar: login, logo" style="rounded=0;whiteSpace=wrap;html=1;" vertex="1" parent="1">
                    <mxGeometry x="110" width="670" height="70" as="geometry"/>
                </mxCell>
                <mxCell id="4" value="Footer" style="rounded=0;whiteSpace=wrap;html=1;" vertex="1" parent="1">
                    <mxGeometry x="110" y="620" width="670" height="70" as="geometry"/>
                </mxCell>
                <mxCell id="6" value="picture&lt;br&gt;name&lt;br&gt;subject&lt;br&gt;date&lt;br&gt;uni&lt;br&gt;detials btn" style="whiteSpace=wrap;html=1;aspect=fixed;" vertex="1" parent="1">
                    <mxGeometry x="130" y="130" width="140" height="140" as="geometry"/>
                </mxCell>
                <mxCell id="7" value="picture&lt;br&gt;name&lt;br&gt;subject&lt;br&gt;date&lt;br&gt;uni&lt;br&gt;detials btn" style="whiteSpace=wrap;html=1;aspect=fixed;" vertex="1" parent="1">
                    <mxGeometry x="290" y="130" width="140" height="140" as="geometry"/>
                </mxCell>
                <mxCell id="8" value="picture&lt;br&gt;name&lt;br&gt;subject&lt;br&gt;date&lt;br&gt;uni&lt;br&gt;detials btn" style="whiteSpace=wrap;html=1;aspect=fixed;" vertex="1" parent="1">
                    <mxGeometry x="450" y="130" width="140" height="140" as="geometry"/>
                </mxCell>
                <mxCell id="9" value="picture&lt;br&gt;name&lt;br&gt;subject&lt;br&gt;date&lt;br&gt;uni&lt;br&gt;detials btn" style="whiteSpace=wrap;html=1;aspect=fixed;" vertex="1" parent="1">
                    <mxGeometry x="610" y="130" width="140" height="140" as="geometry"/>
                </mxCell>
                <mxCell id="10" value="picture&lt;br&gt;name&lt;br&gt;subject&lt;br&gt;date&lt;br&gt;uni&lt;br&gt;detials btn" style="whiteSpace=wrap;html=1;aspect=fixed;" vertex="1" parent="1">
                    <mxGeometry x="130" y="300" width="140" height="140" as="geometry"/>
                </mxCell>
                <mxCell id="11" value="picture&lt;br&gt;name&lt;br&gt;subject&lt;br&gt;date&lt;br&gt;uni&lt;br&gt;detials btn" style="whiteSpace=wrap;html=1;aspect=fixed;" vertex="1" parent="1">
                    <mxGeometry x="290" y="300" width="140" height="140" as="geometry"/>
                </mxCell>
                <mxCell id="12" value="picture&lt;br&gt;name&lt;br&gt;subject&lt;br&gt;date&lt;br&gt;uni&lt;br&gt;detials btn" style="whiteSpace=wrap;html=1;aspect=fixed;" vertex="1" parent="1">
                    <mxGeometry x="450" y="300" width="140" height="140" as="geometry"/>
                </mxCell>
                <mxCell id="13" value="picture&lt;br&gt;name&lt;br&gt;subject&lt;br&gt;date&lt;br&gt;uni&lt;br&gt;detials btn" style="whiteSpace=wrap;html=1;aspect=fixed;" vertex="1" parent="1">
                    <mxGeometry x="610" y="300" width="140" height="140" as="geometry"/>
                </mxCell>
                <mxCell id="14" value="picture&lt;br&gt;name&lt;br&gt;subject&lt;br&gt;date&lt;br&gt;uni&lt;br&gt;detials btn" style="whiteSpace=wrap;html=1;aspect=fixed;" vertex="1" parent="1">
                    <mxGeometry x="130" y="460" width="140" height="140" as="geometry"/>
                </mxCell>
                <mxCell id="15" value="picture&lt;br&gt;name&lt;br&gt;subject&lt;br&gt;date&lt;br&gt;uni&lt;br&gt;detials btn" style="whiteSpace=wrap;html=1;aspect=fixed;" vertex="1" parent="1">
                    <mxGeometry x="290" y="460" width="140" height="140" as="geometry"/>
                </mxCell>
                <mxCell id="16" value="picture&lt;br&gt;name&lt;br&gt;subject&lt;br&gt;date&lt;br&gt;uni&lt;br&gt;detials btn" style="whiteSpace=wrap;html=1;aspect=fixed;" vertex="1" parent="1">
                    <mxGeometry x="450" y="460" width="140" height="140" as="geometry"/>
                </mxCell>
                <mxCell id="17" value="picture&lt;br&gt;name&lt;br&gt;subject&lt;br&gt;date&lt;br&gt;uni&lt;br&gt;detials btn" style="whiteSpace=wrap;html=1;aspect=fixed;" vertex="1" parent="1">
                    <mxGeometry x="610" y="460" width="140" height="140" as="geometry"/>
                </mxCell>
            </root>
        </mxGraphModel>
    </diagram>
</mxfile>